<?xml version="1.0" standalone="no"?>
<!DOCTYPE svg PUBLIC "-//W3C//DTD SVG 20010904//EN"
 "http://www.w3.org/TR/2001/REC-SVG-20010904/DTD/svg10.dtd">
<svg version="1.0" xmlns="http://www.w3.org/2000/svg"
 width="500.000000pt" height="500.000000pt" viewBox="0 0 500.000000 500.000000"
 preserveAspectRatio="xMidYMid meet">
<metadata>
Created by potrace 1.16, written by Peter Selinger 2001-2019
</metadata>
<g transform="translate(0.000000,500.000000) scale(0.100000,-0.100000)"
fill="#000000" stroke="none">
<path d="M2410 4539 c-99 -20 -170 -105 -170 -205 0 -29 5 -65 12 -79 10 -22
9 -28 -10 -41 -31 -21 -70 -92 -77 -139 -27 -166 158 -283 302 -192 24 15 47
27 53 27 5 0 32 -16 59 -35 26 -19 51 -35 54 -35 12 0 87 107 87 123 0 9 -20
28 -45 43 -27 15 -42 31 -39 37 4 7 27 44 50 83 24 39 44 78 44 86 0 17 -78
68 -102 68 -7 0 -28 -26 -46 -58 -18 -31 -41 -68 -52 -82 l-19 -25 -25 24 -26
24 63 61 c74 71 97 115 97 184 0 40 -6 57 -26 81 -14 18 -34 35 -43 40 -28 15
-94 20 -141 10z"/>
<path d="M3340 4511 c-50 -6 -55 -8 -62 -36 -5 -16 -26 -163 -48 -325 -36
-261 -39 -296 -25 -306 8 -6 80 -14 159 -18 159 -8 210 0 262 39 72 55 96 183
50 260 l-24 39 25 31 c93 109 82 243 -22 302 -35 20 -53 23 -150 21 -60 -1
-135 -4 -165 -7z"/>
<path d="M1345 4479 c-49 -10 -100 -21 -112 -24 l-23 -5 0 -334 c0 -234 3
-335 11 -338 6 -2 75 1 153 8 201 16 247 33 293 112 46 78 34 192 -25 245 -20
19 -20 19 11 64 29 40 32 52 32 118 0 82 -15 111 -75 153 -42 28 -134 29 -265
1z"/>
<path d="M1913 3430 c-59 -36 -90 -108 -73 -171 11 -39 69 -99 96 -99 26 0 26
-27 1 -72 -42 -71 -60 -153 -61 -263 0 -132 21 -205 77 -262 45 -47 41 -54
-11 -23 -18 11 -39 20 -47 20 -18 0 -89 -142 -114 -228 -10 -37 -24 -108 -31
-158 -21 -152 12 -327 92 -490 46 -95 119 -191 154 -204 94 -36 404 54 459
133 11 16 15 52 15 148 0 148 -10 171 -85 190 -25 6 -48 16 -53 23 -5 6 -12
52 -16 101 -17 217 -23 341 -19 353 4 9 58 12 223 12 165 0 219 -3 223 -12 4
-12 -2 -136 -19 -353 -4 -49 -11 -95 -16 -101 -5 -7 -28 -17 -51 -23 -80 -21
-87 -36 -87 -194 0 -119 1 -125 25 -151 76 -82 387 -165 463 -123 63 35 176
239 213 385 39 149 32 338 -18 492 -21 66 -84 191 -99 197 -8 3 -29 -4 -47
-16 -51 -31 -65 -26 -31 12 74 78 96 139 95 263 0 104 -32 228 -79 301 -16 26
-9 43 18 43 29 0 75 45 89 88 41 123 -88 244 -199 187 -30 -15 -80 -74 -80
-93 0 -24 -23 -21 -78 11 -69 41 -161 72 -257 87 -114 17 -259 -16 -394 -91
-29 -17 -54 -29 -55 -27 -2 2 -13 22 -26 44 -41 76 -131 105 -197 64z m375
-236 c29 -33 28 -69 -3 -99 -28 -29 -76 -33 -100 -8 -43 43 -38 100 12 127 34
18 61 12 91 -20z m580 0 c29 -33 28 -69 -3 -99 -42 -43 -115 -26 -129 31 -10
37 1 63 37 85 37 22 63 17 95 -17z m-251 -61 c107 -50 179 -197 154 -313 -37
-172 -179 -272 -319 -226 -67 23 -141 102 -165 176 -52 162 29 331 183 381 34
11 104 3 147 -18z"/>
<path d="M2466 3035 c-67 -24 -72 -55 -16 -93 28 -19 44 -23 82 -19 60 5 98
30 98 62 0 48 -92 76 -164 50z"/>
<path d="M2432 1419 c-119 -15 -216 -83 -229 -163 -11 -67 -13 -66 297 -66
309 0 308 0 297 65 -19 115 -178 186 -365 164z m188 -25 c72 -21 133 -65 154
-109 35 -72 44 -70 -268 -73 -171 -1 -283 1 -289 7 -7 7 -4 26 7 56 42 108
236 166 396 119z"/>
<path d="M2173 1103 c-19 -7 -16 -60 3 -67 20 -8 628 -8 648 0 21 8 21 60 0
68 -19 7 -633 7 -651 -1z m655 -30 c-3 -17 -28 -18 -322 -21 -187 -1 -324 2
-329 7 -27 27 12 31 329 31 305 0 325 -1 322 -17z"/>
<path d="M2212 998 c-19 -19 -14 -57 13 -83 l24 -25 249 0 c237 0 251 1 276
21 28 22 35 66 14 87 -17 17 -559 17 -576 0z m568 -13 c18 -21 -2 -62 -36 -75
-14 -6 -124 -10 -244 -10 -120 0 -230 4 -244 10 -34 13 -54 54 -36 75 11 13
52 15 280 15 228 0 269 -2 280 -15z"/>
</g>
</svg>
