<?xml version="1.0" standalone="no"?>
<!DOCTYPE svg PUBLIC "-//W3C//DTD SVG 20010904//EN"
 "http://www.w3.org/TR/2001/REC-SVG-20010904/DTD/svg10.dtd">
<svg version="1.0" xmlns="http://www.w3.org/2000/svg"
 width="512.000000pt" height="512.000000pt" viewBox="0 0 512.000000 512.000000"
 preserveAspectRatio="xMidYMid meet">
<metadata>
Created by potrace 1.16, written by Peter Selinger 2001-2019
</metadata>
<g transform="translate(0.000000,512.000000) scale(0.100000,-0.100000)"
fill="#000000" stroke="none">
<path d="M2315 5114 c-16 -2 -66 -9 -110 -15 -1010 -134 -1871 -897 -2126
-1886 -63 -246 -73 -340 -73 -653 0 -248 2 -301 21 -410 54 -305 151 -586 288
-830 350 -624 931 -1073 1610 -1244 241 -61 328 -71 635 -71 307 0 394 10 635
71 894 226 1613 939 1845 1829 64 247 74 340 74 655 0 313 -10 407 -73 653
-221 856 -905 1560 -1754 1806 -258 75 -383 93 -687 96 -140 2 -268 1 -285 -1z
m517 -589 c817 -123 1466 -715 1656 -1510 41 -171 52 -267 52 -455 0 -187 -11
-285 -51 -450 -193 -803 -847 -1399 -1662 -1515 -131 -19 -403 -19 -534 0
-653 93 -1216 500 -1513 1094 -86 173 -166 439 -190 631 -13 109 -13 371 0
480 15 121 66 328 112 448 201 535 627 965 1160 1167 109 42 298 91 418 110
118 18 431 18 552 0z"/>
<path d="M2540 4053 c-383 -16 -744 -181 -1016 -466 -211 -220 -347 -497 -395
-802 -16 -103 -16 -347 0 -450 31 -199 106 -403 208 -563 245 -385 620 -628
1072 -693 132 -19 401 -6 531 24 408 97 740 338 949 689 55 91 131 258 146
321 l7 27 -310 0 -310 0 -42 -62 c-101 -150 -211 -251 -348 -321 -166 -85
-287 -112 -465 -104 -330 14 -613 195 -767 489 -72 137 -102 258 -102 413 -2
406 252 751 646 877 109 35 302 49 408 29 263 -50 474 -189 621 -409 l48 -72
311 0 310 0 -7 28 c-3 15 -27 75 -51 134 -242 575 -815 936 -1444 911z"/>
</g>
</svg>
